<svg class="icon" width="200" height="200" viewBox="0 0 1024 1024" xmlns="http://www.w3.org/2000/svg"><path d="M512 438.857q135.429 0 253.143-24.571t185.714-72.572v97.143q0 39.429-58.857 73.143t-160 53.429-220 19.714-220-19.714T132 512t-58.857-73.143v-97.143q68 48 185.714 72.572T512 438.857zm0 438.857q135.429 0 253.143-24.571t185.714-72.572v97.143q0 39.429-58.857 73.143t-160 53.429T512 1024t-220-19.714-160-53.429-58.857-73.143v-97.143q68 48 185.714 72.572T512 877.714zm0-219.428q135.429 0 253.143-24.572t185.714-72.571v97.143q0 39.428-58.857 73.143t-160 53.428-220 19.714-220-19.714-160-53.428-58.857-73.143v-97.143q68 48 185.714 72.571T512 658.286zM512 0q118.857 0 220 19.714t160 53.429 58.857 73.143v73.143q0 39.428-58.857 73.142T732 346t-220 19.714T292 346t-160-53.429-58.857-73.142v-73.143q0-39.429 58.857-73.143t160-53.429T512 0z"/></svg>