<svg class="icon" width="200" height="200" viewBox="0 0 1024 1024" xmlns="http://www.w3.org/2000/svg"><path d="M1021.653 471.893L816.64 889.173c-10.24 21.12-31.36 34.987-54.4 36.907H104.32c-12.8 1.067-23.68-8.32-25.173-21.12-.427-5.547 1.066-11.307 4.693-16l205.013-417.28c10.24-21.12 31.36-34.987 54.4-36.907h657.28c12.8-1.066 23.68 8.32 25.174 21.12 1.066 5.76-.427 11.307-4.054 16z"/><path d="M856.747 297.387H245.12L38.4 728.32c-9.813 20.48-40.533 13.44-40.533-9.173V125.653c0-27.306 22.186-49.28 49.28-49.28h319.146c27.307 0 49.28 22.187 49.28 49.28v49.28H857.6c27.307 0 49.28 22.187 49.28 49.28v24.747c-.853 26.24-23.04 48.427-50.133 48.427z"/></svg>